<svg width="580" height="400" xmlns="http://www.w3.org/2000/svg">
 <!-- Created with SVG Editor - http://github.com/mzalive/SVG Editor/ -->

 <g>
  <title>background</title>
  <rect fill="#fff" id="canvas_background" height="402" width="582" y="-1" x="-1"/>
  <g display="none" overflow="visible" y="0" x="0" height="100%" width="100%" id="canvasGrid">
   <rect fill="url(#gridpattern)" stroke-width="0" y="0" x="0" height="100%" width="100%"/>
  </g>
 </g>
 <g>
  <title>Layer 1</title>
  <g id="svg_15">
   <path id="svg_4" fill="#FFBB01" d="m467.10791,106.473374c-1.223822,-4.5504 -4.209067,-8.430223 -8.2944,-10.781867c-4.087467,-2.363733 -8.947912,-3.003094 -13.507556,-1.7792c-4.553245,1.226667 -8.433067,4.209067 -10.785423,8.2944l-2.962489,5.154845c-2.814578,-1.617067 -6.410667,-0.664889 -8.056889,2.135467l-15.049245,25.652624l-5.155556,-2.962489c-1.365333,-0.790044 -2.991645,-1.004089 -4.513422,-0.593067c-1.524622,0.413156 -2.820267,1.4144 -3.604622,2.785422c-1.605689,2.832356 -0.6272,6.431289 2.193067,8.0576l5.155556,2.962489l-50.361603,87.273961l-12.443023,33.240891l-5.924978,11.076978c-3.4688,6.0352 -3.098311,13.536712 0.948622,19.197868l-13.331201,16.352001l-3.731911,-9.358934c-1.6832,-4.172089 -5.580089,-7.030045 -10.061512,-7.380623c-4.484267,-0.352711 -8.780801,1.863111 -11.091912,5.719467l-2.132622,3.613867l-2.013156,-23.699913c-0.462933,-5.6064 -4.805689,-10.114134 -10.388623,-10.791112c-5.586489,-0.674133 -10.875023,2.673067 -12.659912,8.007823l-14.575645,43.725514c-1.018311,3.092622 0.648533,6.4256 3.732622,7.466667c0.578133,0.269511 1.200356,0.430933 1.8368,0.471467c2.545778,0.009244 4.814223,-1.614222 5.629867,-4.027022l14.51449,-43.724803l2.074311,24.052624c0.428089,5.132089 4.116622,9.399467 9.132801,10.562134c5.016889,1.163378 10.206578,-1.047467 12.848356,-5.464889l2.192356,-3.616l3.674311,9.303467c1.559467,3.920356 5.085867,6.717867 9.260801,7.340089c4.174934,0.621511 8.363378,-1.024 11.002312,-4.319289l13.805512,-17.476979c1.527467,0.398933 3.101156,0.598756 4.680534,0.593067c6.350223,0.049067 12.246045,-3.295289 15.463112,-8.771556l5.924978,-9.894401l22.574224,-27.431824l50.894225,-88.341339l5.155556,2.962489c1.373867,0.7872 2.375111,2.0864 2.783289,3.616711c0.410311,1.518933 0.196267,3.138845 -0.590222,4.501334l-23.699913,41.06098c-0.893867,1.347556 -1.197511,3.003022 -0.839111,4.5824c0.359111,1.576533 1.345422,2.939022 2.734222,3.7696c1.365333,0.792889 2.991645,1.006933 4.512711,0.595911c1.524622,-0.413867 2.820978,-1.4144 3.605334,-2.786133l23.699201,-41.06098c2.363733,-4.087467 3.003022,-8.947912 1.776356,-13.506845c-1.226667,-4.553956 -4.209067,-8.433778 -8.2944,-10.785423l-5.154845,-2.962489l14.811734,-25.655468c1.617778,-2.814578 0.6656,-6.407823 -2.131911,-8.056889l2.962489,-5.155556c2.427022,-4.151467 3.069156,-9.110045 1.776356,-13.745067l0,0zm-22.337424,1.658311c0.784356,-1.371733 2.0864,-2.375822 3.616711,-2.783289c1.521778,-0.376178 3.130311,-0.164978 4.501334,0.593067c1.374578,0.783644 2.375111,2.085689 2.786133,3.613156c0.376178,1.521778 0.164978,3.130311 -0.593067,4.501334l-2.962489,5.155556l-10.310401,-5.924978l2.961778,-5.154845zm-80.755916,165.425788l-2.962489,-1.718756l-8.768712,-5.097245l8.413156,-22.513779l18.663112,10.782578l-15.345068,18.547201zm-17.774223,17.120712c-2.5024,-1.744356 -3.272534,-5.100089 -1.776356,-7.761778l2.962489,-5.152711l10.307556,5.924978l-2.962489,5.095111c-0.829867,1.440711 -2.224356,2.464711 -3.847822,2.825956c-1.622756,0.359111 -3.320889,0.023467 -4.683378,-0.931556zm39.874136,-45.382403l-20.499912,-11.849956l47.399825,-82.121249l20.499912,11.849245l-47.399825,82.12196zm53.324803,-92.371917l-20.500623,-11.849245l11.849956,-20.500623l20.499912,11.849956l-11.849245,20.499912z"/>
   <path id="svg_5" fill="#FFBB01" d="m205.732606,287.747696l-20.971379,20.916623l-12.561565,-12.561067c-2.311538,-2.2976 -6.04352,-2.2976 -8.355058,0c-1.122489,1.1136 -1.753173,2.626845 -1.753173,4.206222c0,1.579378 0.630684,3.095467 1.753173,4.206222l12.561494,12.561779c2.221867,2.204445 5.224818,3.439645 8.355129,3.4368c3.147378,0.017067 6.176711,-1.218133 8.413156,-3.4368l20.913068,-20.974223c2.013867,-2.352356 1.878045,-5.856 -0.309333,-8.042667c-2.190222,-2.190222 -5.693156,-2.326045 -8.045512,-0.312889z"/>
   <path id="svg_6" fill="#FFBB01" d="m135.938611,303.686542c0,27.815824 22.548268,50.361603 50.362172,50.361603c27.812979,0 50.361603,-22.545779 50.361603,-50.361603c0,-3.272534 -2.653156,-5.924978 -5.924978,-5.924978c-3.271822,0 -5.924978,2.652445 -5.924978,5.924978c0,21.269335 -17.242312,38.511647 -38.511647,38.511647c-21.269903,0 -38.512287,-17.242312 -38.512287,-38.511647c0,-21.270046 17.242383,-38.512358 38.512287,-38.512358c8.337067,-0.022756 16.452268,2.6816 23.106135,7.704178c2.618311,1.964089 6.333156,1.432178 8.2944,-1.186133c1.964089,-2.618311 1.435022,-6.3296 -1.183289,-8.2944c-15.260445,-11.444623 -35.679647,-13.284979 -52.739772,-4.755911c-17.063112,8.531201 -27.839646,25.97049 -27.839646,45.044625z"/>
   <path id="svg_7" fill="#FFBB01" d="m325.534924,69.651541c3.272534,0 5.924978,-2.650027 5.924978,-5.924907c0,-3.272036 -2.652445,-5.924907 -5.924978,-5.924907l-154.047654,0c-3.272036,0 -5.924907,2.652871 -5.924907,5.924907l0,23.699628c0,3.274951 2.652871,5.924978 5.924907,5.924978l154.047654,0c3.272534,0 5.924978,-2.650027 5.924978,-5.924978c0,-3.271965 -2.652445,-5.924907 -5.924978,-5.924907l-148.122747,0l0,-11.849814l148.122747,0z"/>
   <path id="svg_8" fill="#FFBB01" d="m189.26256,105.201196c-3.271822,0 -5.925049,2.653156 -5.925049,5.924978c0,3.275378 2.653227,5.924978 5.925049,5.924978l118.49814,0c3.271822,0 5.924978,-2.6496 5.924978,-5.924978c0,-3.271822 -2.653156,-5.924978 -5.924978,-5.924978l-118.49814,0z"/>
   <path id="svg_9" fill="#FFBB01" d="m343.31057,146.675332l-130.348097,0c-3.271822,0 -5.924978,2.653156 -5.924978,5.924978c0,3.274667 2.653156,5.924978 5.924978,5.924978l130.348097,0c3.271822,0 5.924978,-2.650311 5.924978,-5.924978c0,-3.271822 -2.653156,-5.924978 -5.924978,-5.924978z"/>
   <path id="svg_10" fill="#FFBB01" d="m284.060788,188.150179c0,-3.271822 -2.652445,-5.924978 -5.924267,-5.924978l-118.498638,0c-3.272036,0 -5.924907,2.653156 -5.924907,5.924978c0,3.274667 2.652871,5.924978 5.924907,5.924978l118.498638,0c3.271822,0 5.924267,-2.650311 5.924267,-5.924978z"/>
   <path id="svg_11" fill="#FFBB01" d="m343.309859,182.225201l-41.474136,0c-3.271822,0 -5.924978,2.653156 -5.924978,5.924978c0,3.274667 2.653156,5.924978 5.924978,5.924978l41.474136,0c3.272534,0 5.924978,-2.650311 5.924978,-5.924978c0,-3.271822 -2.652445,-5.924978 -5.924978,-5.924978z"/>
   <path id="svg_12" fill="#FFBB01" d="m218.88674,223.699337c3.272534,0 5.924978,-2.6496 5.924978,-5.924267c0,-3.272534 -2.652445,-5.924978 -5.924978,-5.924978l-59.248857,0c-3.272036,0 -5.924907,2.652445 -5.924907,5.924978c0,3.274667 2.652871,5.924267 5.924907,5.924267l59.248857,0z"/>
   <path id="svg_13" fill="#FFBB01" d="m242.585941,223.699337l41.474847,0c3.271822,0 5.924978,-2.6496 5.924978,-5.924267c0,-3.272534 -2.653156,-5.924978 -5.924978,-5.924978l-41.474847,0c-3.271822,0 -5.924978,2.652445 -5.924978,5.924978c0,3.274667 2.653156,5.924267 5.924978,5.924267z"/>
   <path id="svg_14" fill="#FFBB01" d="m378.859727,294.799074c-3.271822,0 -5.924978,2.652445 -5.924978,5.924978l0,59.24907c0,3.274667 -2.652445,5.924978 -5.924978,5.924978l-236.996494,0c-3.271965,0 -5.924907,-2.650311 -5.924907,-5.924978l0,-319.94569c0,-3.272036 2.652942,-5.924978 5.924907,-5.924978l236.996494,0c3.272534,0 5.924978,2.652942 5.924978,5.924978l0,111.271544c0,3.271822 2.653156,5.924978 5.924978,5.924978c3.271822,0 5.924978,-2.653156 5.924978,-5.924978l0,-111.271544c0,-9.816036 -7.958756,-17.774792 -17.774934,-17.774792l-236.996494,0c-9.816036,0 -17.774721,7.958756 -17.774721,17.774792l0,319.94569c0,9.819023 7.958685,17.774223 17.774721,17.774223l236.996494,0c9.816178,0 17.774934,-7.9552 17.774934,-17.774223l0,-59.24907c0,-3.272534 -2.653156,-5.924978 -5.924978,-5.924978z"/>
  </g>
 </g>
</svg>